# AST/ASF file generated using VICON BodyLanguage
# -----------------------------------------------
:version 1.10
:name VICON
:units
  mass 1.0
  length 0.45
  angle deg
:documentation
   .ast/.asf automatically generated from VICON data using
   VICON BodyBuilder and BodyLanguage model FoxedUp or BRILLIANT.MOD
:root
   order TX TY TZ RX RY RZ
   axis XYZ
   position 0 0 0  
   orientation 0 0 0 
:bonedata
  begin
     id 1 
     name lhipjoint
     direction 0.700308 -0.549349 0.455834 
     length 2.59063 
     axis 0 0 0  XYZ
  end
  begin
     id 2 
     name lfemur
     direction 0.34202 -0.939693 0  
     length 6.31066  
     axis 0 0 20  XYZ
    dof rx ry rz
    limits (-160.0 20.0)
           (-70.0 70.0)
           (-60.0 70.0)
  end
  begin
     id 3 
     name ltibia
     direction 0.34202 -0.939693 0   
     length 7.36093   
     axis 0 0 20   XYZ
    dof rx
    limits (-10.0 170.0)
  end
  begin
     id 4 
     name lfoot
     direction 0.0905332 -0.248738 0.96433   
     length 2.0233   
     axis -90 7.62852e-016 20   XYZ
    dof rx rz
    limits (-45.0 90.0)
           (-70.0 20.0)
  end
  begin
     id 5 
     name ltoes
     direction 1.53573e-011 -4.21855e-011 1   
     length 1.01524   
     axis -90 7.62852e-016 20   XYZ
    dof rx
    limits (-90.0 20.0)
  end
  begin
     id 6 
     name rhipjoint
     direction -0.61416 -0.607328 0.503944   
     length 2.34332  
     axis 0 0 0  XYZ 
  end
  begin
     id 7 
     name rfemur
     direction -0.34202 -0.939693 0   
     length 6.58548   
     axis 0 0 -20   XYZ
    dof rx ry rz
    limits (-160.0 20.0)
           (-70.0 70.0)
           (-70.0 60.0)
  end
  begin
     id 8 
     name rtibia
     direction -0.34202 -0.939693 0   
     length 7.20707   
     axis 0 0 -20   XYZ
    dof rx
    limits (-10.0 170.0)
 end
 begin
     id 9 
     name rfoot
     direction -0.136772 -0.375778 0.916561   
     length 1.92184  
     axis -90 -7.62852e-016 -20   XYZ
    dof rx rz
    limits (-45.0 90.0)
           (-20.0 70.0)
  end
  begin
     id 10 
     name rtoes
     direction -1.53535e-011 -4.21828e-011 1   
     length 0.951089   
     axis -90 -7.62852e-016 -20   XYZ
    dof rx
    limits (-90.0 20.0)
  end
  begin
     id 11 
     name lowerback
     direction -0.0444974 0.988086 -0.147332   
     length 1.9609   
     axis 0 0 0   XYZ
    dof rx ry rz
    limits (-20.0 45.0)
           (-30.0 30.0)
           (-30.0 30.0)
  end
  begin
     id 12 
     name upperback
     direction 0.00613146 0.999513 0.0306081   
     length 1.94944   
     axis 0 0 0   XYZ
    dof rx ry rz
    limits (-20.0 45.0)
           (-30.0 30.0)
           (-30.0 30.0)
  end
  begin
     id 13 
     name thorax
     direction 0.0254621 0.994518 0.101418   
     length 2.0119   
     axis 0 0 0   XYZ
    dof rx ry rz
    limits (-20.0 45.0)
           (-30.0 30.0)
           (-30.0 30.0)
  end
  begin
     id 14 
     name lowerneck
     direction 0.0168698 0.977854 0.208608   
     length 1.6375   
     axis 0 0 0   XYZ
    dof rx ry rz
    limits (-20.0 45.0)
           (-30.0 30.0)
           (-30.0 30.0)
  end
  begin
     id 15 
     name upperneck
     direction -0.0283988 0.989338 -0.142843   
     length 1.6851   
     axis 0 0 0   XYZ
    dof rx ry rz
    limits (-20.0 45.0)
           (-30.0 30.0)
           (-30.0 30.0)
  end
  begin
     id 16
     name head
     direction -0.0129422 0.99741 -0.0707489  
     length 1.69029  
     axis 0 0 0   XYZ
    dof rx ry rz
    limits (-20.0 45.0)
           (-30.0 30.0)
           (-30.0 30.0)
  end
  begin
     id 17 
     name lclavicle
     direction 0.820295 0.564628 -0.0911715  
     length 3.16484  
     axis 0 0 0   XYZ
    dof ry rz
    limits (-20.0 10.0)
           (0.0 20.0)
  end
  begin
     id 18 
     name lhumerus
     direction 1 -4.48969e-011 1.00186e-027   
     length 5.17853   
     axis 180 -30 -90   XYZ
    dof rx ry rz
    limits (-60.0 90.0)
           (-90.0 90.0)
           (-90.0 90.0)
  end
  begin
     id 19
     name lradius
     direction 1 -4.48966e-011 -1.52922e-027   
     length 3.40399   
     axis 180 -30 -90   XYZ
    dof rx
    limits (-10.0 170.0)
  end
  begin
     id 20
     name lwrist
     direction 1 -4.48981e-011 -3.80893e-027   
     length 1.70199   
     axis 1.1049e-015 90 90   XYZ
    dof ry
    limits (-180.0 0.0)
 end
  begin
     id 21 
     name lhand
     direction 1 -4.48957e-011 -7.61786e-027   
     length 0.708964   
     axis 4.86085e-015 90 90   XYZ
    dof rx rz
    limits (-90.0 90.0)
           (-45.0 45.0)
  end
  begin
     id 22 
     name lfingers
     direction 1 -4.48929e-011 -1.52357e-026   
     length 0.571585   
     axis 9.7217e-015 90 90   XYZ
    dof rx
    limits (0.0 90.0)
  end
  begin
     id 23
     name lthumb
     direction 0.707107 -6.34905e-011 0.707107   
     length 0.820685   
     axis -90 45 2.85299e-015   XYZ
    dof rx rz
    limits (-45.0 45.0)
           (-45.0 45.0)
  end
  begin
     id 24 
     name rclavicle
     direction -0.858602 0.463947 -0.218075   
     length 3.35137  
     axis 0 0 0   XYZ 
    dof ry rz
    limits (-10.0 20.0)
           (-20.0 0.0)
  end
  begin
     id 25 
     name rhumerus
     direction -1 -4.48969e-011 -1.98511e-027  
     length 5.42351   
     axis 180 30 90   XYZ
    dof rx ry rz
    limits (-90.0 60.0)
           (-90.0 90.0)
           (-90.0 90.0)
  end
  begin
     id 26 
     name rradius
     direction -1 -4.48961e-011 -2.82624e-027   
     length 3.42066   
     axis 180 30 90   XYZ
    dof rx
    limits (-10.0 170.0)
  end
  begin
     id 27 
     name rwrist
     direction -1 -4.48966e-011 -3.80893e-027   
     length 1.71033   
     axis 1.1049e-015 -90 -90   XYZ
    dof ry
    limits (-180.0 0.0)
  end
  begin
     id 28
     name rhand
     direction -1 -4.48964e-011 -7.61786e-027   
     length 0.743608   
     axis 4.86085e-015 -90 -90   XYZ
    dof rx rz
    limits (-90.0 90.0)
           (-45.0 45.0)
  end
  begin
     id 29
     name rfingers
     direction -1 -4.48961e-011 -1.52357e-026   
     length 0.599516   
     axis 9.7217e-015 -90 -90   XYZ
    dof rx
    limits (0.0 90.0)
  end
  begin
     id 30
     name rthumb
     direction -0.707107 -6.34913e-011 0.707107   
     length 0.860789   
     axis -90 -45 -2.85299e-015   XYZ
    dof rx rz
    limits (-45.0 45.0)
           (-45.0 45.0)
  end
:hierarchy
  begin
    root lhipjoint rhipjoint lowerback
    lhipjoint lfemur
    lfemur ltibia
    ltibia lfoot
    lfoot ltoes
    rhipjoint rfemur
    rfemur rtibia
    rtibia rfoot
    rfoot rtoes
    lowerback upperback
    upperback thorax
    thorax lowerneck lclavicle rclavicle
    lowerneck upperneck
    upperneck head
    lclavicle lhumerus
    lhumerus lradius
    lradius lwrist
    lwrist lhand lthumb
    lhand lfingers
    rclavicle rhumerus
    rhumerus rradius
    rradius rwrist
    rwrist rhand rthumb
    rhand rfingers
  end

#!OML:ASF E:\mmandel\Project 1\Capture day 1\Session 2\Subject.ASF
:FULLY-SPECIFIED
:DEGREES
416
root 0.828024 2.9377 -7.22587 -11.9454 76.6908 22.9438
lowerback 40.5402 -1.95613 1.52554
upperback 15.4294 0.181227 0.0176595
thorax -2.36115 1.06752 -0.866055
lowerneck -6.87908 2.61895 4.46887
upperneck 16.2786 5.09247 -10.8936
head 6.44883 2.03302 -3.83031
rclavicle -2.82274e-014 2.78299e-014
rhumerus -58.5996 20.9232 -72.9819
rradius 85.433
rwrist -64.2502
rhand -28.2259 15.3518
rfingers 7.12502
rthumb -1.60412 -14.6219
lclavicle -2.82274e-014 2.78299e-014
lhumerus -56.7393 -39.9347 94.8591
lradius 79.3333
lwrist 73.742
lhand -31.3803 -15.0925
lfingers 7.12502
lthumb -4.65039 14.8365
rfemur -91.004 -22.7054 40.5028
rtibia 66.309
rfoot 7.40963 -13.9081
rtoes 0.172472
lfemur -103.67 17.0353 -34.6186
ltibia 95.5562
lfoot 31.5586 -13.9051
ltoes -6.82836
417
root 0.851585 2.94564 -7.22038 -10.7849 76.2341 23.7553
lowerback 40.7349 -1.7078 1.13196
upperback 15.3137 0.325978 0.0305918
thorax -2.54361 1.10788 -0.704659
lowerneck -6.61486 2.9473 4.66284
upperneck 16.3439 5.56437 -11.0445
head 6.47121 2.27016 -3.87703
rclavicle -3.33958e-014 1.27222e-014
rhumerus -58.4978 20.6665 -72.9214
rradius 85.105
rwrist -64.0762
rhand -28.1239 15.483
rfingers 7.12502
rthumb -1.50557 -14.4914
lclavicle -3.33958e-014 1.27222e-014
lhumerus -56.5454 -39.7217 95.2475
lradius 79.0597
lwrist 73.6092
lhand -32.9153 -15.111
lfingers 7.12502
lthumb -6.13241 14.7803
rfemur -91.4895 -22.4329 40.9431
rtibia 66.4854
rfoot 7.46986 -14.0403
rtoes 1.4832
lfemur -104.336 17.4678 -34.9528
ltibia 95.8526
lfoot 31.6477 -14.3019
ltoes -7.42355
418
root 0.873482 2.95432 -7.2069 -10.3026 75.4536 23.8345
lowerback 40.789 -1.31647 0.805067
upperback 15.3305 0.670648 -0.00333575
thorax -2.53604 1.25805 -0.694993
lowerneck -6.68608 3.04664 4.8193
upperneck 16.1331 5.66028 -11.1098
head 6.43144 2.32009 -3.91395
rclavicle 1.19271e-014 -1.74931e-014
rhumerus -58.2749 20.0352 -72.8779
rradius 84.9122
rwrist -64.0348
rhand -28.0978 15.272
rfingers 7.12502
rthumb -1.48037 -14.7026
lclavicle 1.19271e-014 -1.74931e-014
lhumerus -55.9523 -39.9352 95.2649
lradius 78.7113
lwrist 74.409
lhand -33.8898 -15.4836
lfingers 7.12502
lthumb -7.07315 14.3783
rfemur -91.8239 -21.8064 41.5873
rtibia 66.7005
rfoot 7.3749 -14.1484
rtoes -0.187047
lfemur -105.248 18.3549 -35.1553
ltibia 96.2296
lfoot 31.9007 -14.623
ltoes -7.42983
419
root 0.906801 2.96299 -7.20519 -11.0366 75.7663 22.3842
lowerback 40.208 -1.74169 1.5232
upperback 15.5722 0.408303 -0.133078
thorax -2.10036 1.18036 -1.09837
lowerneck -7.16682 3.1873 4.93053
upperneck 15.991 5.78096 -11.0179
head 6.48348 2.37253 -3.88542
rclavicle -4.77083e-015 1.59028e-014
rhumerus -57.5681 19.2306 -72.7603
rradius 84.6185
rwrist -64.322
rhand -27.8037 14.8634
rfingers 7.12502
rthumb -1.19636 -15.113
lclavicle -4.77083e-015 1.59028e-014
lhumerus -54.848 -40.0687 94.7495
lradius 78.3863
lwrist 75.499
lhand -34.4823 -15.7886
lfingers 7.12502
lthumb -7.64515 14.0532
rfemur -92.9687 -22.1471 42.4245
rtibia 67.1526
rfoot 7.16105 -14.235
rtoes -3.27718
lfemur -106.015 17.6502 -34.9353
ltibia 96.3932
lfoot 32.116 -14.8313
ltoes -7.84344
420
root 0.944534 2.96692 -7.20437 -10.9755 76.0794 21.5995
lowerback 39.0824 -2.26324 2.17887
upperback 15.7477 -0.0726614 -0.411841
thorax -1.58272 0.984885 -1.5558
lowerneck -6.6744 3.24536 4.79116
upperneck 15.2439 5.78017 -10.8908
head 6.15388 2.40066 -3.81985
rclavicle -3.97569e-016 2.8625e-014
rhumerus -56.9669 18.9386 -72.8977
rradius 84.2148
rwrist -64.7564
rhand -27.4857 14.6181
rfingers 7.12502
rthumb -0.889181 -15.3598
lclavicle -3.97569e-016 2.8625e-014
lhumerus -54.2869 -39.4874 94.3115
lradius 78.0945
lwrist 76.0646
lhand -34.9838 -15.9664
lfingers 7.12502
lthumb -8.12909 13.8572
rfemur -94.4184 -22.3992 43.1905
rtibia 67.6323
rfoot 7.0781 -14.3812
rtoes -4.36909
lfemur -106.879 16.7873 -34.7772
ltibia 96.5331
lfoot 32.104 -15.3237
ltoes -8.79314
421
root 0.980363 2.97604 -7.20677 -10.5931 77.5043 21.2163
lowerback 38.9822 -2.8254 2.2183
upperback 15.2529 -0.775942 0.0629521
thorax -2.11287 0.577048 -0.843116
lowerneck -6.31928 3.08261 4.04242
upperneck 15.0382 5.66264 -10.9823
head 6.00097 2.3177 -3.73468
rclavicle -1.47101e-014 -1.59028e-015
rhumerus -57.039 19.2895 -72.24
rradius 83.8346
rwrist -65.3547
rhand -27.2135 14.6455
rfingers 7.12502
rthumb -0.626334 -15.3334
lclavicle -1.47101e-014 -1.59028e-015
lhumerus -54.7939 -38.3573 95.474
lradius 77.6433
lwrist 76.1396
lhand -35.3464 -16.0975
lfingers 7.12502
lthumb -8.47909 13.7122
rfemur -96.2676 -23.7025 43.6341
rtibia 68.2139
rfoot 7.00113 -14.4348
rtoes -4.6153
lfemur -107.169 14.6739 -34.7538
ltibia 96.4661
lfoot 31.5948 -16.354
ltoes -11.6778
422
root 1.00294 2.99068 -7.20553 -10.1727 77.4664 21.333
lowerback 39.4403 -2.7572 2.20804
upperback 15.1074 -0.670972 0.128023
thorax -2.40941 0.621577 -0.804983
lowerneck -6.52882 3.25088 4.30871
upperneck 15.2496 5.90497 -11.1275
head 6.13523 2.42799 -3.80629
rclavicle -2.94201e-014 -3.97569e-015
rhumerus -56.521 18.5393 -71.8619
rradius 83.2434
rwrist -65.9297
rhand -27.1385 14.5938
rfingers 7.12502
rthumb -0.553885 -15.3852
lclavicle -2.94201e-014 -3.97569e-015
lhumerus -54.4444 -38.3946 95.644
lradius 77.0676
lwrist 76.3364
lhand -35.5338 -16.2147
lfingers 7.12502
lthumb -8.65994 13.5877
rfemur -96.8123 -23.7953 44.0616
rtibia 68.5068
rfoot 6.69415 -14.4694
rtoes -3.93934
lfemur -107.493 14.4515 -34.6965
ltibia 96.6145
lfoot 31.1389 -17.2445
ltoes -14.2825
